<?xml version="1.0" encoding="UTF-8"?>
<svg width="800" height="800" viewBox="0 0 800 800" xmlns="http://www.w3.org/2000/svg">
    <path fill="#8B0000" d="M400 100c-165.685 0-300 134.315-300 300s134.315 300 300 300 300-134.315 300-300S565.685 100 400 100zm0 550c-137.71 0-250-112.29-250-250s112.29-250 250-250 250 112.29 250 250-112.29 250-250 250z"/>
    <g fill="#8B0000">
        <!-- Bamboo Left -->
        <path d="M250 300h30v200h-30z"/>
        <path d="M220 350l90-30 M220 400l90-30 M220 450l90-30"/>
        <!-- Bamboo Right -->
        <path d="M520 300h30v200h-30z"/>
        <path d="M490 350l90-30 M490 400l90-30 M490 450l90-30"/>
        <!-- Geometric Pattern Top -->
        <path d="M350 200l100 100L350 400 250 300z"/>
        <!-- Bowl and Lotus -->
        <path d="M300 450h200v50H300z"/>
        <path d="M350 430c0 0 50-30 100 0l-50 50z"/>
    </g>
</svg> 